STARTFONT 2.1
FONT matty.geometric
SIZE 13 72 72
FONTBOUNDINGBOX 15 13 0 -1
STARTPROPERTIES 4
FONT_DESCENT 1
FONT_ASCENT 12
DEFAULT_CHAR 0
COPYRIGHT "Copyright (c) 1993 James Matthew Farrow - All rights reserved."
ENDPROPERTIES
CHARS 78
STARTCHAR ch-0
ENCODING 0
SWIDTH 923 0
DWIDTH 12 0
BBX 12 13 0 -1
BITMAP
0000
ffe0
ffe0
ffe0
ffe0
ffe0
ffe0
ffe0
ffe0
ffe0
ffe0
ffe0
0000
ENDCHAR
STARTCHAR ch-1
ENCODING 1
SWIDTH 923 0
DWIDTH 12 0
BBX 12 13 0 -1
BITMAP
0000
ffe0
8020
8020
8020
8020
8020
8020
8020
8020
8020
ffe0
0000
ENDCHAR
STARTCHAR ch-2
ENCODING 2
SWIDTH 923 0
DWIDTH 12 0
BBX 12 13 0 -1
BITMAP
0000
3f80
4040
8020
8020
8020
8020
8020
8020
8020
4040
3f80
0000
ENDCHAR
STARTCHAR ch-3
ENCODING 3
SWIDTH 923 0
DWIDTH 12 0
BBX 12 13 0 -1
BITMAP
0000
ffe0
8020
8020
9f20
9f20
9f20
9f20
9f20
8020
8020
ffe0
0000
ENDCHAR
STARTCHAR ch-4
ENCODING 4
SWIDTH 923 0
DWIDTH 12 0
BBX 12 13 0 -1
BITMAP
0000
ffe0
8020
ffe0
8020
ffe0
8020
ffe0
8020
ffe0
8020
ffe0
0000
ENDCHAR
STARTCHAR ch-5
ENCODING 5
SWIDTH 923 0
DWIDTH 12 0
BBX 12 13 0 -1
BITMAP
0000
ffe0
aaa0
aaa0
aaa0
aaa0
aaa0
aaa0
aaa0
aaa0
aaa0
ffe0
0000
ENDCHAR
STARTCHAR ch-6
ENCODING 6
SWIDTH 923 0
DWIDTH 12 0
BBX 12 13 0 -1
BITMAP
0000
ffe0
aaa0
ffe0
aaa0
ffe0
aaa0
ffe0
aaa0
ffe0
aaa0
ffe0
0000
ENDCHAR
STARTCHAR ch-7
ENCODING 7
SWIDTH 923 0
DWIDTH 12 0
BBX 12 13 0 -1
BITMAP
0000
ffe0
c920
a4a0
9260
c920
a4a0
9260
c920
a4a0
9260
ffe0
0000
ENDCHAR
STARTCHAR ch-8
ENCODING 8
SWIDTH 923 0
DWIDTH 12 0
BBX 12 13 0 -1
BITMAP
0000
ffe0
9260
a4a0
c920
9260
a4a0
c920
9260
a4a0
c920
ffe0
0000
ENDCHAR
STARTCHAR ch-9
ENCODING 9
SWIDTH 923 0
DWIDTH 12 0
BBX 12 13 0 -1
BITMAP
0000
ffe0
c460
aaa0
9120
aaa0
c460
aaa0
9120
aaa0
c460
ffe0
0000
ENDCHAR
STARTCHAR ch-10
ENCODING 10
SWIDTH 461 0
DWIDTH 6 0
BBX 6 13 0 -1
BITMAP
0000
0000
0000
0000
f800
f800
f800
f800
f800
0000
0000
0000
0000
ENDCHAR
STARTCHAR ch-11
ENCODING 11
SWIDTH 461 0
DWIDTH 6 0
BBX 6 13 0 -1
BITMAP
0000
0000
0000
0000
f800
8800
8800
8800
f800
0000
0000
0000
0000
ENDCHAR
STARTCHAR ch-12
ENCODING 12
SWIDTH 923 0
DWIDTH 12 0
BBX 12 13 0 -1
BITMAP
0000
0000
0000
ffe0
ffe0
ffe0
ffe0
ffe0
ffe0
ffe0
0000
0000
0000
ENDCHAR
STARTCHAR ch-13
ENCODING 13
SWIDTH 923 0
DWIDTH 12 0
BBX 12 13 0 -1
BITMAP
0000
0000
0000
ffe0
8020
8020
8020
8020
8020
ffe0
0000
0000
0000
ENDCHAR
STARTCHAR ch-14
ENCODING 14
SWIDTH 615 0
DWIDTH 8 0
BBX 8 13 0 -1
BITMAP
0000
fe00
fe00
fe00
fe00
fe00
fe00
fe00
fe00
fe00
fe00
fe00
0000
ENDCHAR
STARTCHAR ch-15
ENCODING 15
SWIDTH 615 0
DWIDTH 8 0
BBX 8 13 0 -1
BITMAP
0000
fe00
8200
8200
8200
8200
8200
8200
8200
8200
8200
fe00
0000
ENDCHAR
STARTCHAR ch-16
ENCODING 16
SWIDTH 1153 0
DWIDTH 15 0
BBX 15 13 0 -1
BITMAP
0000
0000
0000
1ffc
1ff8
3ff8
3ff0
7ff0
7fe0
ffe0
0000
0000
0000
ENDCHAR
STARTCHAR ch-17
ENCODING 17
SWIDTH 1153 0
DWIDTH 15 0
BBX 15 13 0 -1
BITMAP
0000
0000
0000
1ffc
1008
3018
2010
6030
4020
ffe0
0000
0000
0000
ENDCHAR
STARTCHAR ch-18
ENCODING 18
SWIDTH 923 0
DWIDTH 12 0
BBX 12 13 0 -1
BITMAP
0000
0400
0e00
0e00
1f00
1f00
3f80
3f80
7fc0
7fc0
ffe0
ffe0
0000
ENDCHAR
STARTCHAR ch-19
ENCODING 19
SWIDTH 923 0
DWIDTH 12 0
BBX 12 13 0 -1
BITMAP
0000
0400
0e00
0a00
1b00
1100
3180
2080
60c0
4040
c060
ffe0
0000
ENDCHAR
STARTCHAR ch-20
ENCODING 20
SWIDTH 615 0
DWIDTH 8 0
BBX 8 13 0 -1
BITMAP
0000
0000
0000
1000
3800
3800
7c00
7c00
fe00
fe00
0000
0000
0000
ENDCHAR
STARTCHAR ch-21
ENCODING 21
SWIDTH 615 0
DWIDTH 8 0
BBX 8 13 0 -1
BITMAP
0000
0000
0000
1000
3800
2800
6c00
4400
c600
fe00
0000
0000
0000
ENDCHAR
STARTCHAR ch-22
ENCODING 22
SWIDTH 923 0
DWIDTH 12 0
BBX 12 13 0 -1
BITMAP
0000
c000
f000
fc00
ff00
ffc0
ffe0
ffc0
ff00
fc00
f000
c000
0000
ENDCHAR
STARTCHAR ch-23
ENCODING 23
SWIDTH 923 0
DWIDTH 12 0
BBX 12 13 0 -1
BITMAP
0000
c000
f000
9c00
8700
81c0
8060
81c0
8700
9c00
f000
c000
0000
ENDCHAR
STARTCHAR ch-24
ENCODING 24
SWIDTH 615 0
DWIDTH 8 0
BBX 8 13 0 -1
BITMAP
0000
0000
0000
c000
f000
fc00
fe00
fc00
f000
c000
0000
0000
0000
ENDCHAR
STARTCHAR ch-25
ENCODING 25
SWIDTH 615 0
DWIDTH 8 0
BBX 8 13 0 -1
BITMAP
0000
0000
0000
c000
f000
9c00
8600
9c00
f000
c000
0000
0000
0000
ENDCHAR
STARTCHAR ch-26
ENCODING 26
SWIDTH 923 0
DWIDTH 12 0
BBX 12 13 0 -1
BITMAP
0000
0000
0000
e000
fc00
ff80
ffe0
ff80
fc00
e000
0000
0000
0000
ENDCHAR
STARTCHAR ch-27
ENCODING 27
SWIDTH 923 0
DWIDTH 12 0
BBX 12 13 0 -1
BITMAP
0000
0000
0000
e000
bc00
8780
80e0
8780
bc00
e000
0000
0000
0000
ENDCHAR
STARTCHAR ch-28
ENCODING 28
SWIDTH 923 0
DWIDTH 12 0
BBX 12 13 0 -1
BITMAP
0000
ffe0
ffe0
7fc0
7fc0
3f80
3f80
1f00
1f00
0e00
0e00
0400
0000
ENDCHAR
STARTCHAR ch-29
ENCODING 29
SWIDTH 923 0
DWIDTH 12 0
BBX 12 13 0 -1
BITMAP
0000
ffe0
c060
4040
60c0
2080
3180
1100
1b00
0a00
0e00
0400
0000
ENDCHAR
STARTCHAR ch-30
ENCODING 30
SWIDTH 615 0
DWIDTH 8 0
BBX 8 13 0 -1
BITMAP
0000
0000
0000
fe00
fe00
7c00
7c00
3800
3800
1000
0000
0000
0000
ENDCHAR
STARTCHAR ch-31
ENCODING 31
SWIDTH 615 0
DWIDTH 8 0
BBX 8 13 0 -1
BITMAP
0000
0000
0000
fe00
c600
4400
6c00
2800
3800
1000
0000
0000
0000
ENDCHAR
STARTCHAR ch-32
ENCODING 32
SWIDTH 923 0
DWIDTH 12 0
BBX 12 13 0 -1
BITMAP
0000
0060
01e0
07e0
1fe0
7fe0
ffe0
7fe0
1fe0
07e0
01e0
0060
0000
ENDCHAR
STARTCHAR ch-33
ENCODING 33
SWIDTH 923 0
DWIDTH 12 0
BBX 12 13 0 -1
BITMAP
0000
0060
01e0
0720
1c20
7020
c020
7020
1c20
0720
01e0
0060
0000
ENDCHAR
STARTCHAR ch-34
ENCODING 34
SWIDTH 615 0
DWIDTH 8 0
BBX 8 13 0 -1
BITMAP
0000
0000
0000
0600
1e00
7e00
fe00
7e00
1e00
0600
0000
0000
0000
ENDCHAR
STARTCHAR ch-35
ENCODING 35
SWIDTH 615 0
DWIDTH 8 0
BBX 8 13 0 -1
BITMAP
0000
0000
0000
0600
1e00
7200
c200
7200
1e00
0600
0000
0000
0000
ENDCHAR
STARTCHAR ch-36
ENCODING 36
SWIDTH 923 0
DWIDTH 12 0
BBX 12 13 0 -1
BITMAP
0000
0000
0000
00e0
07e0
3fe0
ffe0
3fe0
07e0
00e0
0000
0000
0000
ENDCHAR
STARTCHAR ch-37
ENCODING 37
SWIDTH 923 0
DWIDTH 12 0
BBX 12 13 0 -1
BITMAP
0000
0000
0000
00e0
07a0
3c20
e020
3c20
07a0
00e0
0000
0000
0000
ENDCHAR
STARTCHAR ch-38
ENCODING 38
SWIDTH 923 0
DWIDTH 12 0
BBX 12 13 0 -1
BITMAP
0000
0400
0e00
1f00
3f80
7fc0
ffe0
7fc0
3f80
1f00
0e00
0400
0000
ENDCHAR
STARTCHAR ch-39
ENCODING 39
SWIDTH 923 0
DWIDTH 12 0
BBX 12 13 0 -1
BITMAP
0000
0400
0e00
1b00
3180
60c0
c060
60c0
3180
1b00
0e00
0400
0000
ENDCHAR
STARTCHAR ch-40
ENCODING 40
SWIDTH 923 0
DWIDTH 12 0
BBX 12 13 0 -1
BITMAP
0000
0400
0e00
1b00
3580
6ec0
df60
6ec0
3580
1b00
0e00
0400
0000
ENDCHAR
STARTCHAR ch-41
ENCODING 41
SWIDTH 923 0
DWIDTH 12 0
BBX 12 13 0 -1
BITMAP
0000
0e00
3b80
60c0
4e40
df60
9f20
df60
4e40
60c0
3b80
0e00
0000
ENDCHAR
STARTCHAR ch-42
ENCODING 42
SWIDTH 615 0
DWIDTH 8 0
BBX 8 13 0 -1
BITMAP
1000
3800
2800
6c00
4400
c600
c600
4400
6c00
2800
3800
1000
0000
ENDCHAR
STARTCHAR ch-43
ENCODING 43
SWIDTH 923 0
DWIDTH 12 0
BBX 12 13 0 -1
BITMAP
0000
0e00
3b80
60c0
4040
c060
8020
c060
4040
60c0
3b80
0e00
0000
ENDCHAR
STARTCHAR ch-44
ENCODING 44
SWIDTH 923 0
DWIDTH 12 0
BBX 12 13 0 -1
BITMAP
0000
0400
1100
0000
4040
0000
8020
0000
4040
0000
1100
0400
0000
ENDCHAR
STARTCHAR ch-45
ENCODING 45
SWIDTH 923 0
DWIDTH 12 0
BBX 12 13 0 -1
BITMAP
0000
0e00
3f80
75c0
5540
d560
d560
d560
5540
75c0
3f80
0e00
0000
ENDCHAR
STARTCHAR ch-46
ENCODING 46
SWIDTH 923 0
DWIDTH 12 0
BBX 12 13 0 -1
BITMAP
0000
0e00
3b80
60c0
4e40
d160
9120
d160
4e40
60c0
3b80
0e00
0000
ENDCHAR
STARTCHAR ch-47
ENCODING 47
SWIDTH 923 0
DWIDTH 12 0
BBX 12 13 0 -1
BITMAP
0000
0e00
3f80
7fc0
7fc0
ffe0
ffe0
ffe0
7fc0
7fc0
3f80
0e00
0000
ENDCHAR
STARTCHAR ch-48
ENCODING 48
SWIDTH 923 0
DWIDTH 12 0
BBX 12 13 0 -1
BITMAP
0000
0e00
3f80
7cc0
7c40
fc60
fc20
fc60
7c40
7cc0
3f80
0e00
0000
ENDCHAR
STARTCHAR ch-49
ENCODING 49
SWIDTH 923 0
DWIDTH 12 0
BBX 12 13 0 -1
BITMAP
0000
0e00
3f80
67c0
47c0
c7e0
87e0
c7e0
47c0
67c0
3f80
0e00
0000
ENDCHAR
STARTCHAR ch-50
ENCODING 50
SWIDTH 923 0
DWIDTH 12 0
BBX 12 13 0 -1
BITMAP
0000
0e00
3b80
60c0
4040
c060
ffe0
ffe0
7fc0
7fc0
3f80
0e00
0000
ENDCHAR
STARTCHAR ch-51
ENCODING 51
SWIDTH 923 0
DWIDTH 12 0
BBX 12 13 0 -1
BITMAP
0000
0e00
3f80
7fc0
7fc0
ffe0
ffe0
c060
4040
60c0
3b80
0e00
0000
ENDCHAR
STARTCHAR ch-52
ENCODING 52
SWIDTH 923 0
DWIDTH 12 0
BBX 12 13 0 -1
BITMAP
0000
0e00
3f80
67c0
47c0
c7e0
87e0
c060
4040
60c0
3b80
0e00
0000
ENDCHAR
STARTCHAR ch-53
ENCODING 53
SWIDTH 923 0
DWIDTH 12 0
BBX 12 13 0 -1
BITMAP
0000
0e00
3b80
63c0
43c0
c3e0
83e0
ffe0
7fc0
7fc0
3f80
0e00
0000
ENDCHAR
STARTCHAR ch-54
ENCODING 54
SWIDTH 538 0
DWIDTH 7 0
BBX 7 13 0 -1
BITMAP
0000
0c00
3c00
7c00
7c00
fc00
fc00
fc00
7c00
7c00
3c00
0c00
0000
ENDCHAR
STARTCHAR ch-55
ENCODING 55
SWIDTH 538 0
DWIDTH 7 0
BBX 7 13 0 -1
BITMAP
0000
c000
f000
f800
f800
fc00
fc00
fc00
f800
f800
f000
c000
0000
ENDCHAR
STARTCHAR ch-56
ENCODING 56
SWIDTH 923 0
DWIDTH 12 0
BBX 12 13 0 -1
BITMAP
0000
ffe0
ffe0
ffe0
f1e0
e0e0
e0e0
e0e0
f1e0
ffe0
ffe0
ffe0
0000
ENDCHAR
STARTCHAR ch-57
ENCODING 57
SWIDTH 1000 0
DWIDTH 13 0
BBX 13 13 0 -1
BITMAP
fff8
f8f8
e238
cf98
dfd8
9fc8
bfe8
9fc8
dfd8
cf98
e238
f8f8
fff8
ENDCHAR
STARTCHAR ch-58
ENCODING 58
SWIDTH 1000 0
DWIDTH 13 0
BBX 13 13 0 -1
BITMAP
fff8
f8f8
e238
cf98
dfd8
9fc8
bfe8
0000
0000
0000
0000
0000
0000
ENDCHAR
STARTCHAR ch-59
ENCODING 59
SWIDTH 1000 0
DWIDTH 13 0
BBX 13 13 0 -1
BITMAP
0000
0000
0000
0000
0000
0000
bfe8
9fc8
dfd8
cf98
e238
f8f8
fff8
ENDCHAR
STARTCHAR ch-60
ENCODING 60
SWIDTH 538 0
DWIDTH 7 0
BBX 7 13 0 -1
BITMAP
0000
0c00
3800
6000
4000
c000
8000
0000
0000
0000
0000
0000
0000
ENDCHAR
STARTCHAR ch-61
ENCODING 61
SWIDTH 538 0
DWIDTH 7 0
BBX 7 13 0 -1
BITMAP
0000
c000
7000
1800
0800
0c00
0400
0000
0000
0000
0000
0000
0000
ENDCHAR
STARTCHAR ch-62
ENCODING 62
SWIDTH 538 0
DWIDTH 7 0
BBX 7 13 0 -1
BITMAP
0000
0000
0000
0000
0000
0000
0400
0c00
0800
1800
7000
c000
0000
ENDCHAR
STARTCHAR ch-63
ENCODING 63
SWIDTH 538 0
DWIDTH 7 0
BBX 7 13 0 -1
BITMAP
0000
0000
0000
0000
0000
0000
8000
c000
4000
6000
3800
0e00
0000
ENDCHAR
STARTCHAR ch-64
ENCODING 64
SWIDTH 923 0
DWIDTH 12 0
BBX 12 13 0 -1
BITMAP
0000
0e00
3b80
60c0
4040
c060
8020
0000
0000
0000
0000
0000
0000
ENDCHAR
STARTCHAR ch-65
ENCODING 65
SWIDTH 923 0
DWIDTH 12 0
BBX 12 13 0 -1
BITMAP
0000
0000
0000
0000
0000
0000
8020
c060
4040
60c0
3b80
0e00
0000
ENDCHAR
STARTCHAR ch-66
ENCODING 66
SWIDTH 923 0
DWIDTH 12 0
BBX 12 13 0 -1
BITMAP
0000
0020
0060
00e0
01e0
03e0
07e0
0fe0
1fe0
3fe0
7fe0
ffe0
0000
ENDCHAR
STARTCHAR ch-67
ENCODING 67
SWIDTH 923 0
DWIDTH 12 0
BBX 12 13 0 -1
BITMAP
0000
8000
c000
e000
f000
f800
fc00
fe00
ff00
ff80
ffc0
ffe0
0000
ENDCHAR
STARTCHAR ch-68
ENCODING 68
SWIDTH 923 0
DWIDTH 12 0
BBX 12 13 0 -1
BITMAP
0000
ffe0
ffc0
ff80
ff00
fe00
fc00
f800
f000
e000
c000
8000
0000
ENDCHAR
STARTCHAR ch-69
ENCODING 69
SWIDTH 923 0
DWIDTH 12 0
BBX 12 13 0 -1
BITMAP
0000
ffe0
7fe0
3fe0
1fe0
0fe0
07e0
03e0
01e0
00e0
0060
0020
0000
ENDCHAR
STARTCHAR ch-70
ENCODING 70
SWIDTH 461 0
DWIDTH 6 0
BBX 6 13 0 -1
BITMAP
0000
0000
0000
0000
7000
8800
8800
8800
7000
0000
0000
0000
0000
ENDCHAR
STARTCHAR ch-71
ENCODING 71
SWIDTH 923 0
DWIDTH 12 0
BBX 12 13 0 -1
BITMAP
0000
ffe0
fc20
fc20
fc20
fc20
fc20
fc20
fc20
fc20
fc20
ffe0
0000
ENDCHAR
STARTCHAR ch-72
ENCODING 72
SWIDTH 923 0
DWIDTH 12 0
BBX 12 13 0 -1
BITMAP
0000
ffe0
87e0
87e0
87e0
87e0
87e0
87e0
87e0
87e0
87e0
ffe0
0000
ENDCHAR
STARTCHAR ch-73
ENCODING 73
SWIDTH 923 0
DWIDTH 12 0
BBX 12 13 0 -1
BITMAP
0000
ffe0
ffe0
ffa0
ff20
fe20
fc20
f820
f020
e020
c020
ffe0
0000
ENDCHAR
STARTCHAR ch-74
ENCODING 74
SWIDTH 923 0
DWIDTH 12 0
BBX 12 13 0 -1
BITMAP
0000
ffe0
8060
80e0
81e0
83e0
87e0
8fe0
9fe0
bfe0
ffe0
ffe0
0000
ENDCHAR
STARTCHAR ch-75
ENCODING 75
SWIDTH 923 0
DWIDTH 12 0
BBX 12 13 0 -1
BITMAP
0000
ffe0
8420
8420
8420
8420
8420
8420
8420
8420
8420
ffe0
0000
ENDCHAR
STARTCHAR ch-76
ENCODING 76
SWIDTH 923 0
DWIDTH 12 0
BBX 12 13 0 -1
BITMAP
0000
0400
0e00
0a00
1b00
1100
3180
2e80
6ec0
4e40
c060
ffe0
0000
ENDCHAR
STARTCHAR ch-77
ENCODING 77
SWIDTH 923 0
DWIDTH 12 0
BBX 12 13 0 -1
BITMAP
0000
0400
0e00
0e00
1f00
1d00
3d80
3c80
7cc0
7c40
fc60
ffe0
0000
ENDCHAR
ENDFONT
